<svg width="393" height="428" xmlns="http://www.w3.org/2000/svg" xmlns:xlink="http://www.w3.org/1999/xlink" xml:space="preserve" overflow="hidden"><defs><filter id="fx0" x="-10%" y="-10%" width="120%" height="120%" filterUnits="userSpaceOnUse" primitiveUnits="userSpaceOnUse"><feComponentTransfer color-interpolation-filters="sRGB"><feFuncR type="discrete" tableValues="0.27451 0.27451"/><feFuncG type="discrete" tableValues="0.258824 0.258824"/><feFuncB type="discrete" tableValues="0.192157 0.192157"/><feFuncA type="linear" slope="0.2" intercept="0"/></feComponentTransfer><feGaussianBlur stdDeviation="4.44444 4.4548"/></filter><clipPath id="clip1"><rect x="154" y="219" width="393" height="428"/></clipPath><clipPath id="clip2"><rect x="0" y="0" width="197" height="215"/></clipPath><clipPath id="clip3"><rect x="172" y="237" width="338" height="373"/></clipPath><clipPath id="clip4"><rect x="172" y="237" width="338" height="373"/></clipPath><clipPath id="clip5"><rect x="172" y="237" width="338" height="373"/></clipPath></defs><g clip-path="url(#clip1)" transform="translate(-154 -219)"><g filter="url(#fx0)" transform="matrix(2 0 0 1.99535 153 218)"><g clip-path="url(#clip2)"><g transform="matrix(1 0 0 1 0 -7.15256e-07)"><g transform="matrix(1 0 0 1 0 -7.15256e-07)"><g transform="matrix(1 0 0 1 0 -7.15256e-07)"><path d="M176.266 135.523C154.096 135.523 136.124 117.551 136.124 95.3805 136.124 73.2102 154.096 55.238 176.266 55.238 198.436 55.238 216.409 73.2102 216.409 95.3805 216.384 117.54 198.426 135.498 176.266 135.523M176.266 55.8702C154.446 55.8702 136.756 73.5594 136.756 95.3805 136.756 117.201 154.446 134.891 176.266 134.891 198.088 134.891 215.777 117.201 215.777 95.3805 215.752 73.5695 198.077 55.8948 176.266 55.8702" stroke="#363636" stroke-width="0.787065" fill="#FFFFFF" transform="matrix(1 0 0 1.00283 -90.9356 -34.9261)"/><path d="M179.33 104.164 205.069 104.164C205.244 104.164 205.386 104.023 205.386 103.848 205.386 103.674 205.244 103.532 205.069 103.532L179.33 103.532C179.155 103.532 179.014 103.674 179.014 103.848 179.014 104.023 179.155 104.164 179.33 104.164Z" stroke="#363636" stroke-width="0.787065" fill="#FFFFFF" transform="matrix(1 0 0 1.00283 -90.9356 -34.9261)"/><path d="M211.482 103.216C207.009 103.221 203.384 106.846 203.379 111.32L203.379 145.686C203.384 150.159 207.009 153.784 211.482 153.789L264.814 153.789C269.287 153.784 272.912 150.159 272.917 145.686L272.917 111.32C272.912 106.846 269.287 103.221 264.814 103.216L211.482 103.216Z" stroke="#363636" stroke-width="0.787065" fill="#FFFFFF" transform="matrix(1 0 0 1.00283 -90.9356 -34.9261)"/><path d="M264.814 154.105 211.482 154.105C206.834 154.1 203.068 150.333 203.063 145.686L203.063 111.32C203.068 106.672 206.834 102.905 211.482 102.9L264.814 102.9C269.461 102.905 273.228 106.672 273.233 111.32L273.233 145.686C273.228 150.333 269.461 154.1 264.814 154.105M211.482 103.532C207.183 103.537 203.7 107.021 203.695 111.32L203.695 145.686C203.7 149.984 207.183 153.468 211.482 153.473L264.814 153.473C269.112 153.468 272.596 149.984 272.601 145.686L272.601 111.32C272.596 107.021 269.112 103.537 264.814 103.532L211.482 103.532" stroke="#363636" stroke-width="0.787065" fill="#FFFFFF" transform="matrix(1 0 0 1.00283 -90.9356 -34.9261)"/><path d="M178.415 101.205C176.758 101.493 175.63 103.049 175.873 104.714 175.899 104.877 175.939 105.037 175.992 105.192L160.091 119.206 165.98 123.332 180.034 106.961C181.328 106.41 182.087 105.055 181.883 103.663 181.63 102.045 180.113 100.939 178.496 101.192 178.469 101.196 178.442 101.201 178.415 101.205Z" stroke="#363636" stroke-width="0.787065" fill="#FFFFFF" transform="matrix(1 0 0 1.00283 -90.9356 -34.9261)"/><path d="M172.384 117.063C172.384 117.063 168.796 121.195 164.428 125.873 164.124 126.195 163.821 126.521 163.508 126.849 160.853 129.663 157.992 132.583 155.511 134.849 152.866 137.274 150.65 138.962 149.575 139.003 149.486 139.009 149.396 138.999 149.31 138.974 146.095 138.007 148.744 139.158 147.369 141.121 145.988 143.087 146.158 140.507 143.064 138.974 139.976 137.441 141.619 138.965 140.387 141.386 140.004 142.145 136.647 141.99 132.222 141.421 131.723 137.201 130.996 133.56 130.996 133.56 130.987 131.029 131.245 128.504 131.767 126.028 139.476 125.889 145.852 125.809 146.177 125.911 147.018 126.167 148.826 125.519 150.824 124.39 151.108 124.229 151.645 123.856 152.357 123.331 152.986 122.87 153.744 122.295 154.588 121.65 155.536 120.917 157.152 120.515 157.676 119.238 159.2 115.553 158.678 118.303 159.086 118.132 159.551 117.936 160.373 117.86 160.853 117.579 161.124 117.46 161.277 117.171 161.223 116.88 161.199 116.76 161.159 116.644 161.103 116.536 160.666 115.66 161.33 115.575 161.956 115.483 162.216 115.47 162.468 115.396 162.693 115.265 165.205 113.261 167.108 111.722 167.108 111.722L167.791 112.417 167.794 112.42 171.834 116.51 172.384 117.063Z" stroke="#363636" stroke-width="0.787065" fill="#FFFFFF" transform="matrix(1 0 0 1.00283 -90.9356 -34.9261)"/><path d="M168.938 234.951 128.992 234.951C127.282 234.951 125.891 233.195 125.891 231.036L125.891 188.59C125.891 186.432 127.282 184.675 128.992 184.675L168.938 184.675C170.647 184.675 172.039 186.432 172.039 188.59L172.039 231.036C172.039 233.195 170.647 234.951 168.938 234.951Z" stroke="#363636" stroke-width="0.787065" fill="#FFFFFF" transform="matrix(1 0 0 1.00283 -90.9356 -34.9261)"/><path d="M105.15 234.864C105.125 235.098 105.292 235.309 105.526 235.339L273.774 235.339C273.994 235.287 274.15 235.09 274.15 234.864 274.15 234.637 273.994 234.441 273.774 234.389L105.526 234.389C105.292 234.419 105.125 234.63 105.15 234.864Z" stroke="#363636" stroke-width="0.787065" fill="#FFFFFF" transform="matrix(1 0 0 1.00283 -90.9356 -34.9261)"/><path d="M91.5265 179.928 95.5537 179.928 97.4698 164.393 91.5256 164.393 91.5265 179.928Z" stroke="#363636" stroke-width="0.787065" fill="#FFFFFF" transform="matrix(1 0 0 1.00283 14.214 14.3492)"/><path d="M196.534 233.266 208.919 233.265 208.919 233.109C208.919 230.446 206.761 228.288 204.099 228.288L204.098 228.288 201.836 226.572 197.615 228.288 196.534 228.288 196.534 233.266Z" stroke="#363636" stroke-width="0.787065" fill="#FFFFFF" transform="matrix(1 0 0 1.00283 -90.9356 -34.9261)"/><path d="M66.5108 178.076 70.3875 179.167 76.4424 164.733 70.7204 163.122 66.5108 178.076Z" stroke="#363636" stroke-width="0.787065" fill="#FFFFFF" transform="matrix(1 0 0 1.00283 14.214 14.3492)"/><path d="M170.385 231.218 182.307 234.574 182.349 234.423C183.071 231.861 181.578 229.199 179.016 228.477L179.015 228.477 177.303 226.212 172.775 226.72 171.734 226.427 170.385 231.218Z" stroke="#363636" stroke-width="0.787065" fill="#FFFFFF" transform="matrix(1 0 0 1.00283 -90.9356 -34.9261)"/><path d="M161.34 161.059C161.34 161.059 160.05 160.931 163.356 162.075 166.934 163.317 172.365 163.156 177.564 165.021 179.17 165.596 180.798 166.184 182.413 166.772 182.739 166.889 183.064 167.009 183.39 167.126 185.492 167.894 187.559 168.662 189.512 169.395 189.787 169.5 190.059 169.604 190.328 169.705 190.334 169.708 190.34 169.708 190.343 169.712 196.713 172.133 201.722 174.206 202.551 175.034 203.436 175.919 203.802 181.9 203.903 189.29 204.087 202.986 203.363 221.527 203.363 221.527L195.913 221.499C195.913 221.499 195.865 221.334 195.774 221.028 195.609 220.462 195.303 219.409 194.895 218.034 193.201 212.291 189.79 200.909 187.906 195.697 187.375 194.224 186.965 193.244 186.746 193.023 185.482 191.727 186.746 191.155 188.011 190.333 189.275 189.511 188.011 189.258 187.082 188.183 186.152 187.109 187.429 184.688 187.429 184.688 187.429 184.688 186.588 184.665 185.248 184.631 183.27 184.58 180.191 184.504 177.109 184.428 177.106 184.431 177.106 184.431 177.106 184.428 175.946 184.4 174.786 184.371 173.686 184.346 172.832 184.324 172.014 184.305 171.255 184.286 168.983 184.235 167.263 184.201 166.833 184.201 165.43 184.201 166.52 184.201 165.673 183.091 165.543 182.926 165.403 182.768 165.253 182.62 165.04 182.384 164.808 182.166 164.557 181.969 164.38 181.887 164.621 182.396 164.488 183.057 164.416 183.415 164.246 183.746 163.998 184.014 162.743 185.408 158.893 183.904 158.893 183.904 152.559 187.071 147.363 186.843 143.361 185.361 140.486 184.253 137.908 182.494 135.829 180.221 135.006 179.356 134.267 178.414 133.622 177.408L133.101 177.31C133.101 177.31 132.399 153.799 133.208 152.209 134.47 149.731 153.122 151.577 153.122 151.577L161.34 161.059Z" stroke="#363636" stroke-width="0.787065" fill="#FFFFFF" transform="matrix(1 0 0 1.00283 -90.9356 -34.9261)"/><path d="M196.082 65.9181 221.822 65.9181C221.996 65.9181 222.138 65.7768 222.138 65.602 222.138 65.4276 221.996 65.286 221.822 65.286L196.082 65.286C195.907 65.286 195.766 65.4276 195.766 65.602 195.766 65.7768 195.907 65.9181 196.082 65.9181Z" stroke="#363636" stroke-width="0.787065" fill="#FFFFFF" transform="matrix(1 0 0 1.00283 -90.9356 -34.9261)"/><path d="M230.931 91.0552C225.712 84.1137 222.695 76.3514 222.597 67.5017 222.247 66.5086 222.766 65.4197 223.758 65.0672L241.547 58.7734C242.54 58.4232 243.629 58.9428 243.981 59.9353L252.315 83.4888C252.666 84.482 252.146 85.5709 251.153 85.9233L233.365 92.2172C232.372 92.5674 231.283 92.0477 230.931 91.0552Z" stroke="#363636" stroke-width="0.787065" fill="#FFFFFF" transform="matrix(1 0 0 1.00283 -90.9356 -34.9261)"/><path d="M229.778 83.4585C226.639 80.2847 225.296 74.6246 224.42 68.3159 224.092 67.386 224.579 66.366 225.508 66.036L240.796 60.6269C241.726 60.2988 242.746 60.7859 243.076 61.7148L250.492 82.6746C250.82 83.6045 250.333 84.6245 249.404 84.9545L239.933 88.3053C235.791 89.7659 231.248 87.5976 229.778 83.4585Z" stroke="#363636" stroke-width="0.787065" fill="#FFFFFF" transform="matrix(1 0 0 1.00283 -90.9356 -34.9261)"/><path d="M243.28 73.006 231.372 77.257C230.977 77.3976 230.543 77.1918 230.402 76.7974 230.262 76.4029 230.467 75.9686 230.862 75.8279L242.77 71.577C243.165 71.4363 243.599 71.6417 243.74 72.0365 243.881 72.431 243.675 72.8653 243.28 73.006Z" stroke="#363636" stroke-width="0.787065" fill="#FFFFFF" transform="matrix(1 0 0 1.00283 -90.9356 -34.9261)"/><path d="M232.593 72.4032 229.973 73.3385C229.579 73.4788 229.145 73.273 229.004 72.8786 228.864 72.4844 229.069 72.0504 229.463 71.9095L232.083 70.9742C232.478 70.8332 232.912 71.039 233.053 71.4338 233.193 71.8282 232.988 72.2622 232.593 72.4032Z" stroke="#363636" stroke-width="0.787065" fill="#FFFFFF" transform="matrix(1 0 0 1.00283 -90.9356 -34.9261)"/><path d="M245.523 79.2884 233.614 83.5391C233.22 83.6801 232.785 83.4743 232.645 83.0798 232.504 82.685 232.71 82.2511 233.104 82.1101L245.013 77.8594C245.268 77.7681 245.553 77.8199 245.76 77.9953 245.966 78.1711 246.064 78.4435 246.015 78.7103 245.966 78.9771 245.778 79.1974 245.523 79.2884Z" stroke="#363636" stroke-width="0.787065" fill="#FFFFFF" transform="matrix(1 0 0 1.00283 -90.9356 -34.9261)"/><path d="M244.402 76.1472 232.493 80.3979C232.098 80.5388 231.664 80.3331 231.523 79.9386 231.383 79.5438 231.588 79.1098 231.983 78.9689L243.892 74.7182C244.286 74.5778 244.72 74.7836 244.861 75.1781 245.001 75.5722 244.796 76.0062 244.402 76.1472Z" stroke="#363636" stroke-width="0.787065" fill="#FFFFFF" transform="matrix(1 0 0 1.00283 -90.9356 -34.9261)"/><path d="M121.619 17.7305C121.619 19.4762 120.204 20.8914 118.458 20.8914 116.713 20.8914 115.298 19.4762 115.298 17.7305 115.298 15.9849 116.713 14.5697 118.458 14.5697 120.204 14.5697 121.619 15.9849 121.619 17.7305Z" stroke="#363636" stroke-width="0.787065" fill="#FFFFFF" transform="matrix(1 0 0 1.00283 14.214 14.3492)"/><path d="M166.424 59.9125 140.684 59.9125C140.51 59.9125 140.368 59.7713 140.368 59.5965 140.368 59.422 140.51 59.2804 140.684 59.2804L166.424 59.2804C166.598 59.2804 166.74 59.422 166.74 59.5965 166.74 59.7713 166.598 59.9125 166.424 59.9125Z" stroke="#363636" stroke-width="0.787065" fill="#FFFFFF" transform="matrix(1 0 0 1.00283 -90.9356 -34.9261)"/><path d="M107.399 71.1246C109.634 62.7326 113.875 55.5658 120.774 50.0217 121.339 49.1329 122.517 48.8692 123.406 49.4319L139.344 59.5332C140.232 60.0978 140.496 61.2755 139.934 62.1653L126.558 83.2682C125.993 84.157 124.816 84.421 123.926 83.858L107.989 73.7567C107.1 73.1921 106.836 72.0144 107.399 71.1246Z" stroke="#363636" stroke-width="0.787065" fill="#FFFFFF" transform="matrix(1 0 0 1.00283 -90.9356 -34.9261)"/><path d="M112.661 65.5255C113.218 61.0969 116.84 56.5437 121.26 51.9586 121.789 51.1264 122.892 50.8792 123.725 51.4061L137.422 60.0873C138.254 60.6165 138.501 61.719 137.975 62.5525L126.072 81.3313C125.543 82.1635 124.441 82.4107 123.607 81.8838L115.122 76.506C111.415 74.1502 110.314 69.2383 112.661 65.5255Z" stroke="#363636" stroke-width="0.787065" fill="#FFFFFF" transform="matrix(1 0 0 1.00283 -90.9356 -34.9261)"/><path d="M129.222 69.6877 118.523 62.9482C118.169 62.7247 118.063 62.2566 118.286 61.9023 118.509 61.5483 118.977 61.4418 119.331 61.6646L130.03 68.4041C130.26 68.5482 130.395 68.8043 130.384 69.0755 130.374 69.3464 130.22 69.5913 129.98 69.7178 129.74 69.8442 129.451 69.8328 129.222 69.6877Z" stroke="#363636" stroke-width="0.787065" fill="#FFFFFF" transform="matrix(1 0 0 1.00283 -90.9356 -34.9261)"/><path d="M123.094 60.9107 120.74 59.428C120.511 59.2835 120.376 59.0278 120.386 58.7566 120.396 58.4858 120.551 58.2408 120.791 58.1144 121.031 57.9879 121.32 57.9993 121.549 58.1441L123.903 59.6268C124.132 59.7713 124.268 60.027 124.257 60.2982 124.247 60.569 124.093 60.814 123.853 60.9404 123.613 61.0669 123.323 61.0555 123.094 60.9107Z" stroke="#363636" stroke-width="0.787065" fill="#FFFFFF" transform="matrix(1 0 0 1.00283 -90.9356 -34.9261)"/><path d="M125.666 75.332 114.967 68.5925C114.738 68.448 114.602 68.192 114.613 67.9211 114.623 67.6499 114.778 67.4053 115.017 67.2789 115.257 67.1524 115.547 67.1638 115.776 67.3086L126.475 74.0481C126.829 74.2716 126.935 74.7397 126.712 75.094 126.488 75.4483 126.021 75.5549 125.666 75.332Z" stroke="#363636" stroke-width="0.787065" fill="#FFFFFF" transform="matrix(1 0 0 1.00283 -90.9356 -34.9261)"/><path d="M127.444 72.51 116.745 65.7705C116.515 65.6261 116.38 65.37 116.391 65.0992 116.401 64.828 116.555 64.583 116.795 64.4569 117.035 64.3304 117.325 64.3418 117.554 64.4866L128.253 71.2261C128.607 71.4496 128.713 71.918 128.49 72.2723 128.267 72.627 127.798 72.7332 127.444 72.51Z" stroke="#363636" stroke-width="0.787065" fill="#FFFFFF" transform="matrix(1 0 0 1.00283 -90.9356 -34.9261)"/><path d="M36.909 11.725C36.909 13.4706 35.4938 14.8858 33.7482 14.8858 32.0025 14.8858 30.5873 13.4706 30.5873 11.725 30.5873 9.97929 32.0025 8.56414 33.7482 8.56414 35.4938 8.56414 36.909 9.97929 36.909 11.725Z" stroke="#363636" stroke-width="0.787065" fill="#FFFFFF" transform="matrix(1 0 0 1.00283 14.214 14.3492)"/><path d="M104.867 55.9767C104.867 57.7224 103.452 59.1375 101.706 59.1375 99.9603 59.1375 98.5451 57.7224 98.5451 55.9767 98.5451 54.231 99.9603 52.8159 101.706 52.8159 103.452 52.8159 104.867 54.231 104.867 55.9767Z" stroke="#363636" stroke-width="0.787065" fill="#FFFFFF" transform="matrix(1 0 0 1.00283 14.214 14.3492)"/><path d="M192.06 184.096C190.741 191.278 185.156 208.109 181.78 217.961 180.241 222.462 180.115 220.768 180.115 220.768L178.36 220.215 175.402 219.279 174.321 218.938 173.012 218.524C173.012 218.524 172.371 207.075 172.165 198.487 172.096 195.718 171.976 193.74 171.776 193.348 170.955 191.736 172.33 191.565 173.78 191.157 175.234 190.75 174.1 190.136 173.534 188.828 173.151 187.955 173.904 186.795 174.438 186.132 174.585 185.945 174.742 185.767 174.909 185.598 174.909 185.598 171.211 184.339 167.029 182.92 167.026 182.923 167.026 182.92 167.026 182.92 166.605 182.778 166.182 182.636 165.758 182.49 167.231 181.959 168.211 181.548 168.432 181.33 169.728 180.066 170.3 181.33 171.122 182.595 171.944 183.859 172.197 182.595 173.272 181.665 174.346 180.736 176.767 182.013 176.767 182.013 176.767 182.013 176.79 181.172 176.824 179.832 176.875 177.853 176.951 174.775 177.027 171.693 177.023 171.69 177.023 171.69 177.027 171.69 177.055 170.53 177.083 169.37 177.109 168.27 179.337 169.977 181.499 171.652 183.459 173.201 183.462 173.204 183.468 173.207 183.468 173.213 188.181 176.937 191.718 179.927 192.214 180.875 192.439 181.305 192.363 182.446 192.06 184.096Z" stroke="#363636" stroke-width="0.787065" fill="#FFFFFF" transform="matrix(1 0 0 1.00283 -90.9356 -34.9261)"/><path d="M161.656 157.266 160.493 158.021 157.515 159.956 153.476 162.576 131.944 176.547C131.944 176.547 129.283 171.123 131.72 166.407 132.033 165.811 132.289 165.185 132.481 164.539 133.468 161.157 131.571 159.69 131.571 159.69 131.571 159.69 128.41 156.615 131.441 153.78 132.064 153.198 132.412 152.006 132.57 150.477 132.835 147.961 132.592 144.534 132.222 141.421 131.723 137.201 130.996 133.56 130.996 133.56 130.987 131.029 131.245 128.504 131.767 126.028 132.345 123.36 133.275 120.825 134.65 118.72 135.154 117.939 135.735 117.21 136.385 116.545 137.294 115.613 138.358 114.846 139.53 114.279 141.287 113.432 144.3 113.941 146.955 114.31 147.489 114.383 148.007 114.453 148.497 114.503 148.983 114.56 149.472 114.59 149.961 114.595L151.061 118.609 151.478 120.129 151.687 120.891 152.161 122.623 152.357 123.331 155.511 134.849 158.087 144.243 159.51 149.434 161.637 157.193 161.656 157.266Z" stroke="#363636" stroke-width="0.787065" fill="#FFFFFF" transform="matrix(1 0 0 1.00283 -90.9356 -34.9261)"/><path d="M48.4786 53.1003C48.4786 58.3994 44.1829 62.6951 38.8839 62.6951 33.5848 62.6951 29.2891 58.3994 29.2891 53.1003 29.2891 47.8013 33.5848 43.5056 38.8839 43.5056 44.1829 43.5056 48.4786 47.8013 48.4786 53.1003Z" stroke="#363636" stroke-width="0.787065" fill="#FFFFFF" transform="matrix(1 0 0 1.00283 14.214 14.3492)"/><path d="M142.236 110.167 141.455 112.666C139.722 111.811 137.966 110.94 136.522 109.654 135.08 108.368 133.963 106.594 133.895 104.663 133.86 103.665 134.101 102.659 133.936 101.675 133.749 100.562 133.062 99.5983 132.748 98.5151 132.141 96.1748 133.282 93.7337 135.466 92.6976 137.057 91.9984 138.876 92.1947 140.605 92.0259 142.334 91.8568 144.262 91.0748 144.749 89.4072 144.931 88.7835 144.91 88.0483 145.467 87.64 146.047 87.2524 146.826 87.3653 147.272 87.901 148.086 88.8256 147.886 90.0428 147.673 91.1497 149.94 90.8536 151.977 89.6148 153.284 87.7383 153.896 88.312 154.254 89.1069 154.277 89.9458 154.301 90.785 153.988 91.5986 153.408 92.2055 154.53 92.2061 155.506 91.4361 155.768 90.3447 156.43 91.2591 157.109 92.2131 157.322 93.3219 157.535 94.4307 157.14 95.7421 156.123 96.2327 155.604 96.4378 155.047 96.5292 154.49 96.5004L150.227 96.5813C147.591 96.6313 145.471 98.7642 145.437 101.4 144.197 101.281 142.919 101.164 141.746 101.686 141.2 101.916 140.74 102.312 140.43 102.818 139.655 104.149 140.424 105.533 141.105 106.744 141.688 107.779 142.24 109.026 141.757 110.111" stroke="#363636" stroke-width="0.787065" fill="#FFFFFF" transform="matrix(1 0 0 1.00283 -90.9356 -34.9261)"/><path d="M186.036 207.587 168.247 201.294C167.255 200.941 166.736 199.852 167.085 198.859L175.42 175.306C175.772 174.313 176.861 173.793 177.854 174.144L195.642 180.437C196.634 180.79 197.154 181.879 196.804 182.872 196.705 191.722 193.689 199.484 188.47 206.425 188.118 207.418 187.029 207.938 186.036 207.587Z" stroke="#363636" stroke-width="0.787065" fill="#FFFFFF" transform="matrix(1 0 0 1.00283 -90.9356 -34.9261)"/><path d="M179.468 203.676 169.997 200.325C169.068 199.995 168.581 198.975 168.909 198.045L176.325 177.085C176.655 176.156 177.675 175.669 178.605 175.997L193.893 181.406C194.822 181.736 195.309 182.756 194.981 183.686 194.105 189.995 192.762 195.655 189.623 198.829 188.153 202.968 183.61 205.136 179.468 203.676Z" stroke="#363636" stroke-width="0.787065" fill="#FFFFFF" transform="matrix(1 0 0 1.00283 -90.9356 -34.9261)"/><path d="M175.661 187.407C175.802 187.013 176.236 186.807 176.631 186.947L188.539 191.198C188.795 191.289 188.982 191.51 189.031 191.776 189.08 192.043 188.983 192.316 188.776 192.491 188.569 192.667 188.285 192.719 188.029 192.627L176.12 188.376C175.726 188.235 175.521 187.801 175.661 187.407Z" stroke="#363636" stroke-width="0.787065" fill="#FFFFFF" transform="matrix(1 0 0 1.00283 -90.9356 -34.9261)"/><path d="M186.349 186.804C186.49 186.41 186.923 186.204 187.318 186.344L189.938 187.28C190.332 187.42 190.538 187.855 190.397 188.249 190.257 188.644 189.822 188.849 189.428 188.709L186.808 187.773C186.414 187.632 186.208 187.198 186.349 186.804Z" stroke="#363636" stroke-width="0.787065" fill="#FFFFFF" transform="matrix(1 0 0 1.00283 -90.9356 -34.9261)"/><path d="M173.419 193.689C173.56 193.295 173.993 193.089 174.388 193.23L186.297 197.48C186.552 197.571 186.74 197.792 186.788 198.058 186.838 198.325 186.74 198.598 186.533 198.773 186.327 198.949 186.042 199.001 185.787 198.909L173.878 194.659C173.484 194.517 173.278 194.084 173.419 193.689Z" stroke="#363636" stroke-width="0.787065" fill="#FFFFFF" transform="matrix(1 0 0 1.00283 -90.9356 -34.9261)"/><path d="M174.54 190.548C174.681 190.154 175.115 189.948 175.509 190.088L187.418 194.339C187.674 194.43 187.861 194.65 187.91 194.918 187.959 195.184 187.861 195.457 187.655 195.632 187.448 195.808 187.163 195.86 186.908 195.768L174.999 191.517C174.605 191.376 174.399 190.942 174.54 190.548Z" stroke="#363636" stroke-width="0.787065" fill="#FFFFFF" transform="matrix(1 0 0 1.00283 -90.9356 -34.9261)"/><path d="M180.644 174.486C180.17 172.872 178.497 171.928 176.87 172.357 176.711 172.402 176.557 172.459 176.408 172.529L160.685 158.316 157.253 164.635 175.108 176.745C175.802 177.969 177.235 178.57 178.595 178.21 180.173 177.775 181.101 176.143 180.666 174.564 180.659 174.538 180.651 174.512 180.644 174.486Z" stroke="#363636" stroke-width="0.787065" fill="#FFFFFF" transform="matrix(1 0 0 1.00283 -90.9356 -34.9261)"/><path d="M168.913 164.441 168.3 165.2 164.69 169.679 164.203 170.286C164.203 170.286 159.048 166.745 153.476 162.576 146.787 157.566 139.498 151.646 139.824 149.841 140.421 146.538 139.577 149.298 137.469 148.153 135.364 147.006 137.943 146.883 139.116 143.637 140.292 140.394 138.964 142.198 136.42 141.25 134.722 140.618 135.611 126.116 136.385 116.545 137.294 115.613 138.358 114.846 139.53 114.279 141.638 113.261 145.561 114.2 148.497 114.503 150.16 126.758 152.559 144.683 152.451 145.249 152.287 146.111 153.141 147.834 154.487 149.693 155.119 150.571 158.378 153.912 161.637 157.193 165.272 160.854 168.913 164.441 168.913 164.441Z" stroke="#363636" stroke-width="0.787065" fill="#FFFFFF" transform="matrix(1 0 0 1.00283 -90.9356 -34.9261)"/><path d="M246.41 119.327 212.945 119.327C212.686 119.328 212.447 119.19 212.318 118.967 212.189 118.743 212.189 118.468 212.318 118.244 212.447 118.021 212.686 117.883 212.945 117.884L246.41 117.884C246.809 117.885 247.131 118.208 247.131 118.606 247.131 119.004 246.809 119.327 246.41 119.327Z" stroke="#363636" stroke-width="0.787065" fill="#FFFFFF" transform="matrix(1 0 0 1.00283 -90.9356 -34.9261)"/><path d="M263.351 125.925 212.945 125.925C212.686 125.926 212.447 125.788 212.318 125.565 212.189 125.341 212.189 125.066 212.318 124.842 212.447 124.619 212.686 124.481 212.945 124.482L263.351 124.482C263.749 124.483 264.072 124.806 264.072 125.204 264.072 125.602 263.749 125.925 263.351 125.925Z" stroke="#363636" stroke-width="0.787065" fill="#FFFFFF" transform="matrix(1 0 0 1.00283 -90.9356 -34.9261)"/><path d="M263.352 131.079 212.943 131.079C212.545 131.079 212.221 131.402 212.221 131.801 212.221 132.2 212.545 132.523 212.943 132.523L263.352 132.523C263.751 132.523 264.075 132.2 264.075 131.801 264.075 131.402 263.751 131.079 263.352 131.079Z" stroke="#363636" stroke-width="0.787065" fill="#FFFFFF" transform="matrix(1 0 0 1.00283 -90.9356 -34.9261)"/><path d="M263.351 139.121 212.945 139.121C212.686 139.122 212.447 138.984 212.318 138.761 212.189 138.537 212.189 138.262 212.318 138.038 212.447 137.815 212.686 137.677 212.945 137.678L263.351 137.678C263.749 137.679 264.072 138.001 264.072 138.399 264.072 138.798 263.749 139.12 263.351 139.121Z" stroke="#363636" stroke-width="0.787065" fill="#FFFFFF" transform="matrix(1 0 0 1.00283 -90.9356 -34.9261)"/></g></g></g></g></g><g clip-path="url(#clip3)"><g clip-path="url(#clip4)"><g clip-path="url(#clip5)"><path d="M352.533 271.046C308.193 271.046 272.248 235.101 272.248 190.761 272.248 146.42 308.193 110.476 352.533 110.476 396.873 110.476 432.818 146.42 432.818 190.761 432.768 235.08 396.852 270.995 352.533 271.046M352.533 111.74C308.891 111.74 273.512 147.119 273.512 190.761 273.512 234.403 308.891 269.782 352.533 269.782 396.175 269.782 431.554 234.403 431.554 190.761 431.504 147.139 396.154 111.79 352.533 111.74" stroke="#363636" stroke-width="1.57413" fill="#FFFFFF" transform="matrix(1 0 0 1.0005 -38.2994 138.882)"/><path d="M358.66 208.328 410.139 208.328C410.488 208.328 410.771 208.046 410.771 207.696 410.771 207.347 410.488 207.064 410.139 207.064L358.66 207.064C358.31 207.064 358.028 207.347 358.028 207.696 358.028 208.046 358.31 208.328 358.66 208.328Z" stroke="#363636" stroke-width="1.57413" fill="#FFFFFF" transform="matrix(1 0 0 1.0005 -38.2994 138.882)"/><path d="M422.965 206.432C414.018 206.442 406.768 213.692 406.757 222.639L406.757 291.371C406.768 300.318 414.018 307.568 422.965 307.578L529.627 307.578C538.573 307.568 545.824 300.318 545.834 291.371L545.834 222.639C545.824 213.692 538.573 206.442 529.627 206.432L422.965 206.432Z" stroke="#363636" stroke-width="1.57413" fill="#FFFFFF" transform="matrix(1 0 0 1.0005 -38.2994 138.882)"/><path d="M529.627 308.21 422.965 308.21C413.669 308.2 406.136 300.667 406.125 291.371L406.125 222.639C406.136 213.343 413.669 205.81 422.965 205.8L529.627 205.8C538.922 205.81 546.456 213.343 546.466 222.639L546.466 291.371C546.456 300.667 538.922 308.2 529.627 308.21M422.965 207.064C414.367 207.074 407.399 214.041 407.39 222.639L407.39 291.371C407.399 299.969 414.367 306.937 422.965 306.946L529.627 306.946C538.225 306.937 545.192 299.969 545.202 291.371L545.202 222.639C545.192 214.041 538.225 207.074 529.627 207.064L422.965 207.064" stroke="#363636" stroke-width="1.57413" fill="#FFFFFF" transform="matrix(1 0 0 1.0005 -38.2994 138.882)"/><path d="M356.831 202.411C353.515 202.986 351.261 206.098 351.746 209.428 351.799 209.753 351.878 210.073 351.983 210.385L320.182 238.412 331.961 246.663 360.067 213.923C362.655 212.819 364.174 210.109 363.766 207.325 363.26 204.09 360.227 201.877 356.991 202.383 356.938 202.392 356.885 202.401 356.831 202.411Z" stroke="#363636" stroke-width="1.57413" fill="#FFFFFF" transform="matrix(1 0 0 1.0005 -38.2994 138.882)"/><path d="M344.767 234.127C344.767 234.127 337.592 242.389 328.856 251.745 328.249 252.39 327.642 253.041 327.016 253.699 321.706 259.325 315.985 265.166 311.022 269.699 305.731 274.548 301.3 277.923 299.15 278.006 298.971 278.018 298.792 277.998 298.619 277.949 292.19 276.014 297.488 278.315 294.738 282.241 291.975 286.173 292.317 281.015 286.128 277.949 279.951 274.883 283.239 277.93 280.773 282.772 280.008 284.289 273.295 283.98 264.444 282.842 263.446 274.402 261.992 267.12 261.992 267.12 261.974 262.058 262.49 257.008 263.534 252.055 278.953 251.777 291.703 251.619 292.354 251.821 294.036 252.333 297.652 251.037 301.647 248.781 302.216 248.458 303.291 247.712 304.713 246.663 305.971 245.74 307.489 244.589 309.176 243.3 311.073 241.833 314.303 241.03 315.353 238.476 318.4 231.105 317.357 236.605 318.172 236.264 319.101 235.872 320.745 235.72 321.706 235.157 322.248 234.921 322.554 234.341 322.446 233.76 322.399 233.521 322.318 233.289 322.205 233.071 321.333 231.32 322.66 231.149 323.912 230.966 324.431 230.941 324.936 230.791 325.385 230.53 330.411 226.522 334.216 223.443 334.216 223.443L335.582 224.834 335.588 224.84 343.667 233.021 344.767 234.127Z" stroke="#363636" stroke-width="1.57413" fill="#FFFFFF" transform="matrix(1 0 0 1.0005 -38.2994 138.882)"/><path d="M337.875 469.901 257.984 469.901C254.564 469.901 251.781 466.389 251.781 462.072L251.781 377.18C251.781 372.863 254.564 369.351 257.984 369.351L337.875 369.351C341.295 369.351 344.078 372.863 344.078 377.18L344.078 462.072C344.078 466.389 341.295 469.901 337.875 469.901Z" stroke="#363636" stroke-width="1.57413" fill="#FFFFFF" transform="matrix(1 0 0 1.0005 -38.2994 138.882)"/><path d="M210.299 469.727C210.25 470.196 210.584 470.618 211.052 470.677L547.547 470.677C547.988 470.573 548.299 470.18 548.299 469.727 548.299 469.275 547.988 468.882 547.547 468.778L211.052 468.778C210.584 468.837 210.25 469.259 210.299 469.727Z" stroke="#363636" stroke-width="1.57413" fill="#FFFFFF" transform="matrix(1 0 0 1.0005 -38.2994 138.882)"/><path d="M183.053 359.857 191.107 359.856 194.94 328.786 183.051 328.787 183.053 359.857Z" stroke="#363636" stroke-width="1.57413" fill="#FFFFFF" transform="matrix(1 0 0 1.0005 172 237.204)"/><path d="M393.069 466.531 417.839 466.531 417.839 466.217C417.839 460.892 413.522 456.577 408.198 456.576L408.197 456.576 403.673 453.143 395.231 456.577 393.068 456.577 393.069 466.531Z" stroke="#363636" stroke-width="1.57413" fill="#FFFFFF" transform="matrix(1 0 0 1.0005 -38.2994 138.882)"/><path d="M133.022 356.153 140.775 358.335 152.885 329.466 141.441 326.245 133.022 356.153Z" stroke="#363636" stroke-width="1.57413" fill="#FFFFFF" transform="matrix(1 0 0 1.0005 172 237.204)"/><path d="M340.77 462.436 364.614 469.148 364.699 468.847C366.141 463.722 363.156 458.397 358.031 456.954L358.031 456.953 354.606 452.423 345.549 453.44 343.468 452.854 340.77 462.436Z" stroke="#363636" stroke-width="1.57413" fill="#FFFFFF" transform="matrix(1 0 0 1.0005 -38.2994 138.882)"/><path d="M322.679 322.118C322.679 322.118 320.1 321.861 326.713 324.15 333.869 326.634 344.729 326.312 355.129 330.042 358.34 331.192 361.596 332.368 364.826 333.544 365.477 333.778 366.128 334.018 366.779 334.252 370.983 335.788 375.118 337.324 379.024 338.791 379.574 338.999 380.118 339.208 380.655 339.41 380.668 339.417 380.681 339.417 380.687 339.423 393.425 344.265 403.445 348.412 405.101 350.069 406.871 351.839 407.605 363.799 407.807 378.579 408.174 405.971 406.726 443.054 406.726 443.054L391.826 442.997C391.826 442.997 391.731 442.668 391.548 442.055 391.219 440.924 390.606 438.818 389.79 436.068 386.402 424.582 379.581 401.818 375.813 391.393 374.751 388.447 373.929 386.488 373.493 386.045 370.964 383.453 373.493 382.309 376.022 380.665 378.55 379.022 376.022 378.516 374.163 376.367 372.304 374.217 374.858 369.375 374.858 369.375 374.858 369.375 373.177 369.331 370.496 369.261 366.539 369.16 360.382 369.008 354.218 368.857 354.212 368.863 354.212 368.863 354.212 368.857 351.892 368.8 349.572 368.743 347.372 368.692 345.665 368.648 344.028 368.61 342.51 368.572 337.965 368.471 334.526 368.401 333.667 368.401 330.86 368.401 333.041 368.401 331.346 366.183 331.087 365.851 330.806 365.536 330.506 365.241 330.081 364.767 329.616 364.332 329.115 363.938 328.761 363.774 329.241 364.792 328.976 366.113 328.831 366.829 328.492 367.492 327.996 368.029 325.486 370.816 317.786 367.807 317.786 367.807 305.118 374.142 294.725 373.686 286.722 370.722 280.973 368.506 275.816 364.988 271.657 360.443 270.011 358.712 268.534 356.828 267.245 354.816L266.202 354.62C266.202 354.62 264.798 307.597 266.417 304.417 268.939 299.461 306.243 303.153 306.243 303.153L322.679 322.118Z" stroke="#363636" stroke-width="1.57413" fill="#FFFFFF" transform="matrix(1 0 0 1.0005 -38.2994 138.882)"/><path d="M392.165 131.836 443.644 131.836C443.993 131.836 444.276 131.554 444.276 131.204 444.276 130.855 443.993 130.572 443.644 130.572L392.165 130.572C391.815 130.572 391.532 130.855 391.532 131.204 391.532 131.554 391.815 131.836 392.165 131.836Z" stroke="#363636" stroke-width="1.57413" fill="#FFFFFF" transform="matrix(1 0 0 1.0005 -38.2994 138.882)"/><path d="M461.861 182.11C451.424 168.227 445.391 152.703 445.194 135.003 444.493 133.017 445.533 130.839 447.517 130.134L483.094 117.547C485.08 116.846 487.258 117.886 487.963 119.871L504.631 166.978C505.331 168.964 504.291 171.142 502.307 171.847L466.73 184.434C464.744 185.135 462.566 184.095 461.861 182.11Z" stroke="#363636" stroke-width="1.57413" fill="#FFFFFF" transform="matrix(1 0 0 1.0005 -38.2994 138.882)"/><path d="M459.556 166.917C453.279 160.569 450.591 149.249 448.84 136.632 448.185 134.772 449.158 132.732 451.017 132.072L481.592 121.254C483.452 120.598 485.492 121.572 486.152 123.43L500.984 165.349C501.64 167.209 500.666 169.249 498.807 169.909L479.867 176.611C471.582 179.532 462.496 175.195 459.556 166.917Z" stroke="#363636" stroke-width="1.57413" fill="#FFFFFF" transform="matrix(1 0 0 1.0005 -38.2994 138.882)"/><path d="M486.561 146.012 462.744 154.514C461.954 154.795 461.086 154.384 460.804 153.595 460.523 152.806 460.934 151.937 461.724 151.656L485.54 143.154C486.33 142.873 487.198 143.283 487.48 144.073 487.761 144.862 487.35 145.731 486.561 146.012Z" stroke="#363636" stroke-width="1.57413" fill="#FFFFFF" transform="matrix(1 0 0 1.0005 -38.2994 138.882)"/><path d="M465.186 144.806 459.946 146.677C459.157 146.958 458.29 146.546 458.008 145.757 457.727 144.969 458.138 144.101 458.926 143.819L464.166 141.948C464.955 141.666 465.823 142.078 466.105 142.868 466.387 143.656 465.976 144.524 465.186 144.806Z" stroke="#363636" stroke-width="1.57413" fill="#FFFFFF" transform="matrix(1 0 0 1.0005 -38.2994 138.882)"/><path d="M491.046 158.577 467.229 167.078C466.44 167.36 465.571 166.949 465.29 166.16 465.008 165.37 465.419 164.502 466.208 164.22L490.026 155.719C490.536 155.536 491.106 155.64 491.52 155.991 491.933 156.342 492.128 156.887 492.03 157.421 491.932 157.954 491.557 158.395 491.046 158.577Z" stroke="#363636" stroke-width="1.57413" fill="#FFFFFF" transform="matrix(1 0 0 1.0005 -38.2994 138.882)"/><path d="M488.803 152.294 464.986 160.796C464.197 161.078 463.329 160.666 463.047 159.877 462.765 159.088 463.177 158.22 463.966 157.938L487.783 149.436C488.572 149.156 489.44 149.567 489.721 150.356 490.002 151.144 489.592 152.012 488.803 152.294Z" stroke="#363636" stroke-width="1.57413" fill="#FFFFFF" transform="matrix(1 0 0 1.0005 -38.2994 138.882)"/><path d="M243.238 35.4611C243.238 38.9524 240.408 41.7827 236.917 41.7827 233.425 41.7827 230.595 38.9524 230.595 35.4611 230.595 31.9697 233.425 29.1394 236.917 29.1394 240.408 29.1394 243.238 31.9697 243.238 35.4611Z" stroke="#363636" stroke-width="1.57413" fill="#FFFFFF" transform="matrix(1 0 0 1.0005 172 237.204)"/><path d="M332.848 119.825 281.369 119.825C281.02 119.825 280.737 119.543 280.737 119.193 280.737 118.844 281.02 118.561 281.369 118.561L332.848 118.561C333.197 118.561 333.48 118.844 333.48 119.193 333.48 119.543 333.197 119.825 332.848 119.825Z" stroke="#363636" stroke-width="1.57413" fill="#FFFFFF" transform="matrix(1 0 0 1.0005 -38.2994 138.882)"/><path d="M214.797 142.249C219.269 125.465 227.751 111.132 241.549 100.043 242.678 98.2657 245.033 97.7385 246.813 98.8638L278.688 119.066C280.465 120.196 280.993 122.551 279.867 124.331L253.117 166.536C251.987 168.314 249.632 168.842 247.852 167.716L215.977 147.513C214.2 146.384 213.672 144.029 214.797 142.249Z" stroke="#363636" stroke-width="1.57413" fill="#FFFFFF" transform="matrix(1 0 0 1.0005 -38.2994 138.882)"/><path d="M225.322 131.051C226.437 122.194 233.679 113.087 242.52 103.917 243.578 102.253 245.783 101.758 247.45 102.812L274.844 120.175C276.509 121.233 277.003 123.438 275.949 125.105L252.144 162.663C251.087 164.327 248.881 164.821 247.214 163.768L230.244 153.012C222.83 148.3 220.628 138.477 225.322 131.051Z" stroke="#363636" stroke-width="1.57413" fill="#FFFFFF" transform="matrix(1 0 0 1.0005 -38.2994 138.882)"/><path d="M258.443 139.375 237.046 125.896C236.338 125.449 236.125 124.513 236.572 123.805 237.018 123.097 237.954 122.884 238.663 123.329L260.06 136.808C260.52 137.096 260.79 137.609 260.769 138.151 260.749 138.693 260.44 139.183 259.96 139.436 259.48 139.688 258.902 139.666 258.443 139.375Z" stroke="#363636" stroke-width="1.57413" fill="#FFFFFF" transform="matrix(1 0 0 1.0005 -38.2994 138.882)"/><path d="M246.188 121.821 241.481 118.856C241.021 118.567 240.751 118.056 240.772 117.513 240.793 116.972 241.101 116.482 241.581 116.229 242.061 115.976 242.64 115.999 243.098 116.288L247.806 119.254C248.265 119.543 248.535 120.054 248.514 120.596 248.494 121.138 248.185 121.628 247.705 121.881 247.225 122.134 246.647 122.111 246.188 121.821Z" stroke="#363636" stroke-width="1.57413" fill="#FFFFFF" transform="matrix(1 0 0 1.0005 -38.2994 138.882)"/><path d="M251.332 150.664 229.934 137.185C229.475 136.896 229.205 136.384 229.226 135.842 229.247 135.3 229.555 134.811 230.035 134.558 230.515 134.305 231.093 134.328 231.552 134.617L252.95 148.096C253.658 148.543 253.869 149.479 253.423 150.188 252.977 150.897 252.041 151.11 251.332 150.664Z" stroke="#363636" stroke-width="1.57413" fill="#FFFFFF" transform="matrix(1 0 0 1.0005 -38.2994 138.882)"/><path d="M254.887 145.02 233.49 131.541C233.031 131.252 232.761 130.74 232.781 130.198 232.802 129.656 233.11 129.166 233.59 128.914 234.071 128.661 234.649 128.684 235.107 128.973L256.505 142.452C257.214 142.899 257.427 143.836 256.98 144.545 256.533 145.254 255.597 145.466 254.887 145.02Z" stroke="#363636" stroke-width="1.57413" fill="#FFFFFF" transform="matrix(1 0 0 1.0005 -38.2994 138.882)"/><path d="M73.818 23.4499C73.818 26.9413 70.9877 29.7716 67.4963 29.7716 64.005 29.7716 61.1747 26.9413 61.1747 23.4499 61.1747 19.9586 64.005 17.1283 67.4963 17.1283 70.9877 17.1283 73.818 19.9586 73.818 23.4499Z" stroke="#363636" stroke-width="1.57413" fill="#FFFFFF" transform="matrix(1 0 0 1.0005 172 237.204)"/><path d="M209.734 111.953C209.734 115.445 206.903 118.275 203.412 118.275 199.921 118.275 197.09 115.445 197.09 111.953 197.09 108.462 199.921 105.632 203.412 105.632 206.903 105.632 209.734 108.462 209.734 111.953Z" stroke="#363636" stroke-width="1.57413" fill="#FFFFFF" transform="matrix(1 0 0 1.0005 172 237.204)"/><path d="M384.119 368.192C381.483 382.555 370.312 416.218 363.561 435.922 360.482 444.924 360.229 441.536 360.229 441.536L356.721 440.43 350.804 438.559 348.642 437.876 346.025 437.048C346.025 437.048 344.741 414.151 344.331 396.975 344.191 391.437 343.951 387.48 343.553 386.696 341.909 383.472 344.659 383.13 347.561 382.315 350.469 381.499 348.199 380.273 347.068 377.656 346.303 375.911 347.807 373.591 348.876 372.263 349.17 371.89 349.485 371.534 349.818 371.195 349.818 371.195 342.421 368.679 334.058 365.841 334.051 365.847 334.051 365.841 334.051 365.841 333.211 365.556 332.364 365.272 331.517 364.981 334.462 363.919 336.422 363.097 336.865 362.661 339.456 360.132 340.601 362.661 342.244 365.189 343.888 367.718 344.394 365.189 346.543 363.331 348.692 361.472 353.535 364.026 353.535 364.026 353.535 364.026 353.579 362.345 353.649 359.664 353.75 355.707 353.901 349.55 354.053 343.386 354.047 343.38 354.047 343.38 354.053 343.38 354.11 341.06 354.167 338.74 354.218 336.54 358.674 339.953 362.998 343.304 366.918 346.401 366.924 346.408 366.937 346.414 366.937 346.427 376.362 353.874 383.436 359.854 384.429 361.75 384.878 362.61 384.726 364.892 384.119 368.192Z" stroke="#363636" stroke-width="1.57413" fill="#FFFFFF" transform="matrix(1 0 0 1.0005 -38.2994 138.882)"/><path d="M323.312 314.532 320.985 316.043 315.03 319.912 306.951 325.152 263.888 353.094C263.888 353.094 258.565 342.246 263.439 332.814 264.066 331.621 264.577 330.37 264.963 329.078 266.935 322.314 263.142 319.381 263.142 319.381 263.142 319.381 256.82 313.23 262.883 307.559 264.128 306.396 264.824 304.013 265.14 300.953 265.671 295.921 265.184 289.068 264.444 282.842 263.446 274.402 261.992 267.12 261.992 267.12 261.974 262.058 262.49 257.008 263.534 252.055 264.691 246.72 266.549 241.65 269.299 237.439 270.308 235.877 271.471 234.42 272.77 233.09 274.589 231.227 276.717 229.693 279.06 228.558 282.575 226.863 288.599 227.881 293.91 228.621 294.978 228.766 296.015 228.905 296.995 229.006 297.966 229.12 298.944 229.181 299.921 229.19L302.121 237.218 302.956 240.259 303.373 241.782 304.321 245.247 304.713 246.663 311.022 269.699 316.174 288.487 319.019 298.867 323.274 314.387 323.312 314.532Z" stroke="#363636" stroke-width="1.57413" fill="#FFFFFF" transform="matrix(1 0 0 1.0005 -38.2994 138.882)"/><path d="M96.9573 106.201C96.9573 116.799 88.3658 125.39 77.7677 125.39 67.1697 125.39 58.5782 116.799 58.5782 106.201 58.5782 95.6026 67.1697 87.0111 77.7677 87.0111 88.3658 87.0111 96.9573 95.6026 96.9573 106.201Z" stroke="#363636" stroke-width="1.57413" fill="#FFFFFF" transform="matrix(1 0 0 1.0005 172 237.204)"/><path d="M284.473 220.334 282.91 225.332C279.444 223.621 275.931 221.879 273.045 219.308 270.159 216.737 267.927 213.188 267.79 209.326 267.72 207.331 268.203 205.318 267.871 203.349 267.497 201.125 266.124 199.197 265.496 197.03 264.283 192.35 266.565 187.467 270.933 185.395 274.114 183.997 277.751 184.389 281.209 184.052 284.667 183.714 288.525 182.15 289.498 178.814 289.862 177.567 289.821 176.097 290.935 175.28 292.094 174.505 293.652 174.731 294.544 175.802 296.173 177.651 295.771 180.086 295.345 182.299 299.88 181.707 303.955 179.23 306.567 175.477 307.793 176.624 308.508 178.214 308.555 179.892 308.602 181.57 307.976 183.197 306.816 184.411 309.061 184.412 311.013 182.872 311.535 180.689 312.859 182.518 314.219 184.426 314.645 186.644 315.07 188.861 314.28 191.484 312.246 192.465 311.208 192.876 310.094 193.058 308.979 193.001L300.453 193.163C295.182 193.263 290.942 197.528 290.874 202.8 288.393 202.562 285.839 202.328 283.493 203.373 282.4 203.833 281.479 204.624 280.86 205.635 279.31 208.298 280.848 211.066 282.211 213.488 283.376 215.558 284.481 218.052 283.514 220.221" stroke="#363636" stroke-width="1.57413" fill="#FFFFFF" transform="matrix(1 0 0 1.0005 -38.2994 138.882)"/><path d="M372.072 415.175 336.495 402.587C334.51 401.882 333.471 399.704 334.171 397.718L350.839 350.611C351.544 348.626 353.722 347.587 355.708 348.287L391.285 360.875C393.269 361.58 394.309 363.758 393.608 365.744 393.411 383.443 387.378 398.968 376.941 412.851 376.236 414.836 374.057 415.875 372.072 415.175Z" stroke="#363636" stroke-width="1.57413" fill="#FFFFFF" transform="matrix(1 0 0 1.0005 -38.2994 138.882)"/><path d="M358.935 407.351 339.994 400.65C338.136 399.99 337.162 397.95 337.818 396.09L352.65 354.17C353.31 352.312 355.35 351.338 357.21 351.994L387.786 362.812C389.643 363.472 390.618 365.512 389.961 367.372 388.21 379.99 385.524 391.31 379.246 397.657 376.306 405.936 367.22 410.272 358.935 407.351Z" stroke="#363636" stroke-width="1.57413" fill="#FFFFFF" transform="matrix(1 0 0 1.0005 -38.2994 138.882)"/><path d="M351.322 374.814C351.605 374.025 352.472 373.614 353.261 373.894L377.079 382.396C377.589 382.578 377.965 383.019 378.062 383.553 378.16 384.086 377.966 384.631 377.552 384.982 377.139 385.333 376.569 385.437 376.058 385.254L352.241 376.752C351.452 376.47 351.042 375.602 351.322 374.814Z" stroke="#363636" stroke-width="1.57413" fill="#FFFFFF" transform="matrix(1 0 0 1.0005 -38.2994 138.882)"/><path d="M372.697 373.608C372.98 372.819 373.847 372.408 374.636 372.689L379.876 374.559C380.665 374.841 381.076 375.709 380.794 376.498 380.513 377.287 379.645 377.699 378.856 377.417L373.616 375.547C372.827 375.264 372.416 374.397 372.697 373.608Z" stroke="#363636" stroke-width="1.57413" fill="#FFFFFF" transform="matrix(1 0 0 1.0005 -38.2994 138.882)"/><path d="M346.837 387.378C347.12 386.589 347.987 386.179 348.776 386.459L372.593 394.961C373.104 395.143 373.48 395.583 373.577 396.117 373.675 396.65 373.48 397.196 373.067 397.547 372.653 397.898 372.084 398.002 371.573 397.819L347.756 389.317C346.967 389.035 346.556 388.167 346.837 387.378Z" stroke="#363636" stroke-width="1.57413" fill="#FFFFFF" transform="matrix(1 0 0 1.0005 -38.2994 138.882)"/><path d="M349.079 381.096C349.362 380.307 350.229 379.896 351.019 380.177L374.836 388.678C375.347 388.86 375.722 389.301 375.82 389.835 375.917 390.369 375.723 390.914 375.309 391.264 374.896 391.616 374.326 391.72 373.816 391.537L349.999 383.035C349.21 382.752 348.799 381.885 349.079 381.096Z" stroke="#363636" stroke-width="1.57413" fill="#FFFFFF" transform="matrix(1 0 0 1.0005 -38.2994 138.882)"/><path d="M361.287 348.972C360.34 345.743 356.993 343.855 353.74 344.714 353.423 344.803 353.114 344.918 352.816 345.058L321.371 316.632 314.506 329.269 350.215 353.49C351.605 355.937 354.469 357.14 357.189 356.419 360.346 355.55 362.202 352.286 361.333 349.129 361.318 349.077 361.303 349.024 361.287 348.972Z" stroke="#363636" stroke-width="1.57413" fill="#FFFFFF" transform="matrix(1 0 0 1.0005 -38.2994 138.882)"/><path d="M337.826 328.882 336.6 330.399 329.38 339.357 328.407 340.571C328.407 340.571 318.096 333.491 306.951 325.152 293.575 315.133 278.997 303.292 279.648 299.683 280.843 293.076 279.155 298.595 274.938 296.307 270.728 294.012 275.887 293.765 278.232 287.273 280.584 280.787 277.928 284.397 272.84 282.5 269.445 281.236 271.221 252.232 272.77 233.09 274.589 231.227 276.717 229.693 279.06 228.558 283.277 226.522 291.122 228.4 296.995 229.006 300.32 253.515 305.118 289.366 304.903 290.497 304.574 292.223 306.281 295.668 308.974 299.385 310.238 301.143 316.756 307.825 323.274 314.387 330.544 321.707 337.826 328.882 337.826 328.882Z" stroke="#363636" stroke-width="1.57413" fill="#FFFFFF" transform="matrix(1 0 0 1.0005 -38.2994 138.882)"/><path d="M492.821 238.655 425.889 238.655C425.373 238.656 424.895 238.381 424.636 237.934 424.378 237.487 424.378 236.936 424.636 236.489 424.895 236.042 425.373 235.767 425.889 235.768L492.821 235.768C493.617 235.77 494.261 236.415 494.261 237.211 494.261 238.007 493.617 238.653 492.821 238.655Z" stroke="#363636" stroke-width="1.57413" fill="#FFFFFF" transform="matrix(1 0 0 1.0005 -38.2994 138.882)"/><path d="M526.703 251.85 425.889 251.85C425.373 251.852 424.895 251.577 424.636 251.13 424.378 250.683 424.378 250.132 424.636 249.685 424.895 249.238 425.373 248.963 425.889 248.964L526.703 248.964C527.499 248.966 528.143 249.611 528.143 250.407 528.143 251.203 527.499 251.849 526.703 251.85Z" stroke="#363636" stroke-width="1.57413" fill="#FFFFFF" transform="matrix(1 0 0 1.0005 -38.2994 138.882)"/><path d="M526.705 262.158 425.887 262.158C425.089 262.158 424.442 262.805 424.442 263.602 424.442 264.4 425.089 265.047 425.887 265.047L526.705 265.047C527.502 265.047 528.149 264.4 528.149 263.602 528.149 262.805 527.502 262.158 526.705 262.158Z" stroke="#363636" stroke-width="1.57413" fill="#FFFFFF" transform="matrix(1 0 0 1.0005 -38.2994 138.882)"/><path d="M526.703 278.243 425.889 278.243C425.373 278.243 424.895 277.969 424.636 277.521 424.378 277.074 424.378 276.524 424.636 276.076 424.895 275.629 425.373 275.355 425.889 275.356L526.703 275.356C527.499 275.357 528.143 276.003 528.143 276.799 528.143 277.595 527.499 278.241 526.703 278.243Z" stroke="#363636" stroke-width="1.57413" fill="#FFFFFF" transform="matrix(1 0 0 1.0005 -38.2994 138.882)"/></g></g></g></g></svg>